<svg width="900" height="600" viewBox="0 0 900 600" fill="none" xmlns="http://www.w3.org/2000/svg">
  <rect width="900" height="600" fill="#091022"/>
  <circle cx="760" cy="520" r="240" fill="#0EA5E9" fill-opacity="0.16"/>
  <circle cx="120" cy="120" r="170" fill="#22C55E" fill-opacity="0.2"/>
  <rect x="92" y="120" width="716" height="360" rx="24" fill="#111A35" stroke="#2D457A"/>
  <rect x="128" y="158" width="200" height="96" rx="16" fill="#1E2E57"/>
  <rect x="350" y="158" width="200" height="96" rx="16" fill="#1E2E57"/>
  <rect x="572" y="158" width="200" height="96" rx="16" fill="#1E2E57"/>
  <rect x="128" y="280" width="430" height="164" rx="16" fill="#18254A"/>
  <rect x="580" y="280" width="192" height="164" rx="16" fill="#18254A"/>
  <rect x="156" y="340" width="42" height="76" rx="8" fill="#38BDF8"/>
  <rect x="214" y="306" width="42" height="110" rx="8" fill="#34D399"/>
  <rect x="272" y="328" width="42" height="88" rx="8" fill="#60A5FA"/>
  <rect x="330" y="290" width="42" height="126" rx="8" fill="#A78BFA"/>
  <path d="M606 392C636 348 680 340 740 368" stroke="#22D3EE" stroke-width="8" stroke-linecap="round"/>
  <circle cx="606" cy="392" r="9" fill="#22D3EE"/>
  <circle cx="740" cy="368" r="9" fill="#22D3EE"/>
  <text x="124" y="90" fill="#E2E8F0" font-family="Arial, sans-serif" font-size="42" font-weight="700">Business Dashboard</text>
  <text x="124" y="522" fill="#86EFAC" font-family="Arial, sans-serif" font-size="28">KPIs • Reports • Role-Based Admin Panels</text>
</svg>
