<svg width="900" height="600" viewBox="0 0 900 600" fill="none" xmlns="http://www.w3.org/2000/svg">
  <rect width="900" height="600" fill="#081025"/>
  <circle cx="760" cy="100" r="180" fill="#60A5FA" fill-opacity="0.22"/>
  <circle cx="170" cy="520" r="220" fill="#A78BFA" fill-opacity="0.18"/>
  <rect x="100" y="140" width="700" height="340" rx="24" fill="#111B38" stroke="#35508B"/>
  <rect x="140" y="180" width="220" height="260" rx="16" fill="#1C2A53"/>
  <rect x="392" y="180" width="368" height="80" rx="16" fill="#1C2A53"/>
  <rect x="392" y="282" width="368" height="56" rx="16" fill="#24376A"/>
  <rect x="392" y="354" width="368" height="56" rx="16" fill="#24376A"/>
  <path d="M208 226L248 206L288 226V272L248 292L208 272V226Z" fill="#34D399"/>
  <path d="M248 292V340" stroke="#34D399" stroke-width="8" stroke-linecap="round"/>
  <path d="M220 340H276" stroke="#34D399" stroke-width="8" stroke-linecap="round"/>
  <path d="M432 220H722" stroke="#93C5FD" stroke-width="10" stroke-linecap="round"/>
  <path d="M432 310H680" stroke="#BFDBFE" stroke-width="8" stroke-linecap="round"/>
  <path d="M432 382H640" stroke="#BFDBFE" stroke-width="8" stroke-linecap="round"/>
  <text x="120" y="100" fill="#E2E8F0" font-family="Arial, sans-serif" font-size="42" font-weight="700">Deployment Toolkit</text>
  <text x="120" y="520" fill="#C4B5FD" font-family="Arial, sans-serif" font-size="28">AWS EC2 • Nginx • SSL • Production Setup</text>
</svg>
