<svg xmlns="http://www.w3.org/2000/svg" version="1.1" xmlns:xlink="http://www.w3.org/1999/xlink" xmlns:svgjs="http://svgjs.dev/svgjs" width="1500" height="1112" viewBox="0 0 1500 1112"><g transform="matrix(1,0,0,1,0.3194724433662941,0.4502024291497264)"><svg viewBox="0 0 333 247" data-background-color="#000000" preserveAspectRatio="xMidYMid meet" height="1112" width="1500" xmlns="http://www.w3.org/2000/svg" xmlns:xlink="http://www.w3.org/1999/xlink"><g id="tight-bounds" transform="matrix(1,0,0,1,-0.07092288242731115,-0.09999999999999432)"><svg viewBox="0 0 333.1418457648546 247.2" height="247.2" width="333.1418457648546"><g><svg viewBox="0 0 333.1418457648546 247.2" height="247.2" width="333.1418457648546"><g><svg viewBox="0 0 333.1418457648546 247.2" height="247.2" width="333.1418457648546"><g id="textblocktransform"><svg viewBox="0 0 333.1418457648546 247.2" height="247.2" width="333.1418457648546" id="textblock"><g><svg viewBox="0 0 333.1418457648546 247.2" height="247.2" width="333.1418457648546"><g transform="matrix(1,0,0,1,0,0)"><svg width="333.1418457648546" viewBox="0 -37.55 52.05 38.62" height="247.2" data-palette-color="url(#a5121262-9b1a-4aeb-86d3-7ccabe2a85b0)"></svg></g></svg></g></svg></g></svg></g></svg></g><defs></defs><mask id="6708cec1-1988-4cba-9331-a36a38ba7bcb"><g id="SvgjsG1064"><svg viewBox="0 0 333.1418457648546 247.2" height="247.2" width="333.1418457648546"><g><svg viewBox="0 0 333.1418457648546 247.2" height="247.2" width="333.1418457648546"><g><svg viewBox="0 0 333.1418457648546 247.2" height="247.2" width="333.1418457648546"><g id="SvgjsG1063"><svg viewBox="0 0 333.1418457648546 247.2" height="247.2" width="333.1418457648546" id="SvgjsSvg1062"><g><svg viewBox="0 0 333.1418457648546 247.2" height="247.2" width="333.1418457648546"><g transform="matrix(1,0,0,1,0,0)"><svg width="333.1418457648546" viewBox="0 -37.55 52.05 38.62" height="247.2" data-palette-color="url(#a5121262-9b1a-4aeb-86d3-7ccabe2a85b0)"><path d="M19.92-37.55L19.92-37.55Q20.31-37.55 20.48-37.38 20.65-37.21 20.75-36.96L20.75-36.96Q21.24-37.01 21.75-36.79 22.27-36.57 22.36-36.38L22.36-36.38Q22.75-36.33 22.85-36.18 22.95-36.04 23.14-35.99L23.14-35.99 23.68-36.04Q23.88-35.84 24.44-35.64 25-35.45 25.1-35.21L25.1-35.21Q25-34.96 25.02-34.69 25.05-34.42 25.05-34.08L25.05-34.08Q24.9-33.35 24.58-32.76 24.27-32.18 24.02-31.64L24.02-31.64Q23.88-31.4 23.8-31.1 23.73-30.81 23.63-30.57L23.63-30.57Q23.54-30.37 23.46-30.2 23.39-30.03 23.29-29.83L23.29-29.83Q23.29-29.59 23.19-29.32 23.1-29.05 23-28.81L23-28.81Q23-28.52 22.95-28.39 22.9-28.27 22.9-28.17L22.9-28.17Q21.97-25.93 21.44-23.97 20.9-22.02 20.36-20.07L20.36-20.07Q20.12-19.48 19.87-18.6 19.63-17.72 19.26-16.53 18.9-15.33 18.48-13.99 18.07-12.65 17.7-11.5 17.33-10.35 17.07-9.55 16.8-8.74 16.75-8.64L16.75-8.64Q16.6-7.81 16.31-6.96 16.02-6.1 15.82-5.18L15.82-5.18Q15.58-4.88 15.53-4.52 15.48-4.15 15.28-3.81L15.28-3.81Q14.89-3.86 14.65-3.61L14.65-3.61Q14.6-3.22 14.72-2.88 14.84-2.54 14.84-2.15L14.84-2.15Q14.65-1.61 14.36-1.46 14.06-1.32 13.96-0.98L13.96-0.98Q13.62-1.07 13.45-0.88 13.28-0.68 13.09-0.68L13.09-0.68Q12.5-0.83 12.4-0.49L12.4-0.49Q12.11-0.59 12.01-0.42 11.91-0.24 11.82-0.2L11.82-0.2Q11.43-0.2 11.21-0.02 10.99 0.15 10.69 0.2L10.69 0.2Q10.5 0.1 10.3-0.02 10.11-0.15 9.96-0.29L9.96-0.29Q9.67-1.12 9.42-1.93 9.18-2.73 8.94-3.56L8.94-3.56Q8.84-3.96 8.69-4.3 8.54-4.64 8.45-5.03L8.45-5.03Q8.4-5.27 8.4-5.44 8.4-5.62 8.35-5.81L8.35-5.81Q8.25-6.05 8.15-6.3 8.06-6.54 7.96-6.79L7.96-6.79Q7.57-7.86 7.37-8.98L7.37-8.98Q7.13-9.81 6.91-10.62 6.69-11.43 6.49-12.26L6.49-12.26Q6.35-12.94 6.15-13.7 5.96-14.45 5.66-15.04L5.66-15.04Q5.57-15.82 5.25-16.53 4.93-17.24 4.93-17.97L4.93-17.97Q4.69-18.75 4.52-19.53 4.35-20.31 4.1-21.09L4.1-21.09Q4-21.48 3.86-21.83 3.71-22.17 3.61-22.51L3.61-22.51Q3.47-22.95 3.37-23.44 3.27-23.93 3.17-24.41L3.17-24.41Q3.03-24.85 2.88-25.27 2.73-25.68 2.59-26.12L2.59-26.12Q2.34-26.95 2.12-27.76 1.9-28.56 1.66-29.39L1.66-29.39Q1.42-30.32 1.2-31.23 0.98-32.13 0.44-32.96L0.44-32.96Q0.29-33.2 0.22-33.52 0.15-33.84 0-34.13L0-34.13Q0.1-34.52 0.05-35.03 0-35.55 0.2-35.84L0.2-35.84Q0.68-35.84 1.37-35.86 2.05-35.89 2.39-35.79L2.39-35.79Q2.59-35.84 2.71-35.94 2.83-36.04 3.03-36.08L3.03-36.08Q3.32-35.94 3.61-35.94L3.61-35.94Q4.05-35.94 4.3-36.13L4.3-36.13Q4.83-35.89 4.88-36.04 4.93-36.18 5.13-36.18L5.13-36.18Q5.42-36.08 5.57-35.77 5.71-35.45 5.86-35.21L5.86-35.21Q6.4-34.23 6.67-33.28 6.93-32.32 7.23-31.25L7.23-31.25Q7.57-30.27 7.86-29.32 8.15-28.37 8.4-27.39L8.4-27.39Q8.54-26.9 8.64-26.42 8.74-25.93 8.84-25.44L8.84-25.44Q8.98-24.9 9.18-24.44 9.38-23.97 9.57-23.44L9.57-23.44Q9.67-22.9 9.77-22.39 9.86-21.88 10.01-21.34L10.01-21.34Q10.11-20.95 10.25-20.61 10.4-20.26 10.5-19.87L10.5-19.87Q10.6-19.48 10.69-19.07 10.79-18.65 10.89-18.26L10.89-18.26Q11.13-17.29 11.43-16.33 11.72-15.38 11.96-14.4L11.96-14.4Q12.21-14.55 12.26-14.94 12.3-15.33 12.45-15.58L12.45-15.58Q12.55-16.16 12.77-16.85 12.99-17.53 13.18-18.12L13.18-18.12Q13.23-18.36 13.31-18.55 13.38-18.75 13.48-18.99L13.48-18.99Q13.62-19.29 13.67-19.6 13.72-19.92 13.82-20.26L13.82-20.26Q14.01-20.95 14.23-21.63 14.45-22.31 14.65-23L14.65-23Q14.84-23.63 14.99-24.32 15.14-25 15.38-25.59L15.38-25.59Q15.63-26.12 15.8-26.61 15.97-27.1 16.11-27.64L16.11-27.64Q16.26-28.17 16.36-28.71 16.46-29.25 16.7-29.69L16.7-29.69Q16.8-29.93 16.92-30.25 17.04-30.57 17.14-30.86L17.14-30.86Q17.38-31.64 17.58-32.42 17.77-33.2 18.12-33.98L18.12-33.98Q18.36-34.67 18.7-35.3 19.04-35.94 19.29-36.62L19.29-36.62Q19.48-37.11 19.63-37.26 19.78-37.4 19.92-37.55ZM48.87 0.15L48.53 0.1Q48.29 0.68 47.51 1.07L47.51 1.07Q47.17 0.88 46.9 0.61 46.63 0.34 46.24 0.2L46.24 0.2Q45.94-0.39 45.8-0.51 45.65-0.63 45.46-0.68L45.46-0.68Q45.16-0.93 44.97-1.27 44.77-1.61 44.53-1.86L44.53-1.86Q44.43-1.9 44.16-2.17 43.89-2.44 43.6-2.73 43.31-3.03 43.06-3.3 42.82-3.56 42.77-3.56L42.77-3.56Q42.33-3.86 41.99-4.2L41.99-4.2Q41.89-4.35 41.77-4.52 41.65-4.69 41.55-4.79L41.55-4.79Q41.16-4.93 40.92-5.2 40.67-5.47 40.45-5.81 40.23-6.15 39.96-6.42 39.69-6.69 39.35-6.84L39.35-6.84Q39.01-7.32 38.52-7.64 38.03-7.96 37.69-8.4L37.69-8.4Q37.4-8.74 37.06-9.06 36.72-9.38 36.33-9.67L36.33-9.67Q36.13-9.96 35.69-10.52 35.25-11.08 34.91-11.13L34.91-11.13Q34.86-10.01 34.84-8.89 34.81-7.76 34.76-6.64L34.76-6.64Q34.76-6.05 34.79-5.42 34.81-4.79 34.76-4.15L34.76-4.15Q34.71-3.91 34.64-3.64 34.57-3.37 34.57-3.08L34.57-3.08Q34.57-2.49 34.49-2.32 34.42-2.15 34.37-2L34.37-2Q34.23-1.51 34.1-0.81 33.98-0.1 33.59 0.29L33.59 0.29Q33.05 0.34 32.76 0.2L32.76 0.2Q32.66 0.29 32.57 0.39 32.47 0.49 32.27 0.49L32.27 0.49Q32.18 0.39 31.96 0.32 31.74 0.24 31.64 0.24L31.64 0.24Q31.39 0.24 31.13 0.34 30.86 0.44 30.61 0.44L30.61 0.44Q30.37 0.44 30.2 0.32 30.03 0.2 29.78 0.2L29.78 0.2Q29.64 0.2 29.44 0.34 29.25 0.49 29.05 0.49L29.05 0.49Q28.81 0.49 28.64 0.42 28.46 0.34 28.27 0.29L28.27 0.29Q28.27 0.15 28.29 0 28.32-0.15 28.27-0.29L28.27-0.29 28.07-1.51Q28.12-1.86 28.2-2.2 28.27-2.54 28.32-2.83L28.32-2.83Q28.37-3.61 28.39-4.32 28.42-5.03 28.42-5.76L28.42-5.76Q28.42-7.03 28.39-8.25 28.37-9.47 28.42-10.74L28.42-10.74Q28.46-11.18 28.54-11.65 28.61-12.11 28.61-12.55L28.61-12.55Q28.61-13.82 28.76-15.04 28.9-16.26 29-17.53L29-17.53Q29.1-18.51 29.1-19.43 29.1-20.36 29.1-21.29L29.1-21.29Q29.1-23.1 29.05-24.88 29-26.66 29-28.42L29-28.42Q29-29 29.05-30 29.1-31.01 28.95-31.54L28.95-31.54Q29-32.96 28.95-34.33L28.95-34.33Q29.15-34.42 29.17-34.62 29.2-34.81 29.2-35.01L29.2-35.01 29.2-35.69Q29.64-36.18 29.93-36.18L29.93-36.18Q30.17-36.18 30.42-36.13 30.66-36.08 30.91-35.94L30.91-35.94Q31.54-36.08 31.74-35.99 31.93-35.89 32.18-35.79L32.18-35.79Q32.57-35.84 32.71-36.13L32.71-36.13Q33.25-36.04 33.25-35.89 33.25-35.74 33.35-35.6L33.35-35.6Q33.84-35.55 34.01-35.67 34.18-35.79 34.42-35.84L34.42-35.84Q34.86-35.74 35.01-35.6L35.01-35.6Q35.01-35.3 35.15-34.94 35.3-34.57 35.3-33.98L35.3-33.98Q35.3-33.54 35.25-33.13 35.2-32.71 35.2-32.32L35.2-32.32Q35.2-31.64 35.25-31.01 35.3-30.37 35.3-29.69L35.3-29.69Q35.3-29.49 35.28-29.32 35.25-29.15 35.25-28.96L35.25-28.96Q35.25-27.1 35.35-25.2 35.45-23.29 35.45-21.39L35.45-21.39Q35.45-21.29 35.4-21.12 35.35-20.95 35.45-20.85L35.45-20.85Q36.28-21.73 36.86-22.73 37.45-23.73 38.13-24.71L38.13-24.71Q38.72-25.44 39.33-26.46 39.94-27.49 40.38-28.32L40.38-28.32Q40.57-28.61 40.72-28.91 40.87-29.2 41.06-29.49L41.06-29.49Q41.16-29.74 41.33-29.96 41.5-30.18 41.6-30.47L41.6-30.47Q41.84-30.86 42.04-31.23 42.23-31.59 42.48-31.98L42.48-31.98Q42.72-32.37 42.99-32.69 43.26-33.01 43.5-33.35L43.5-33.35Q43.89-33.98 44.33-34.64 44.77-35.3 45.11-35.99L45.11-35.99Q45.6-36.23 45.99-36.55 46.38-36.87 46.82-37.11L46.82-37.11Q47.31-36.47 47.53-36.23 47.75-35.99 48.14-35.94L48.14-35.94Q48.24-35.79 48.26-35.6 48.29-35.4 48.44-35.3L48.44-35.3Q49.02-35.25 49.12-35.3L49.12-35.3Q49.27-35.06 49.53-34.94 49.8-34.81 50.05-34.72L50.05-34.72Q50.05-34.57 50.05-34.4 50.05-34.23 50.1-34.13L50.1-34.13Q50.68-33.89 50.68-33.2L50.68-33.2Q49.75-31.54 48.65-30.05 47.56-28.56 46.73-26.86L46.73-26.86Q46.48-26.32 46.16-25.83 45.85-25.34 45.65-24.8L45.65-24.8Q45.31-24.46 45.11-24.1 44.92-23.73 44.63-23.39L44.63-23.39Q44.43-23.14 44.24-22.88 44.04-22.61 43.85-22.36L43.85-22.36Q43.45-21.83 43.14-21.26 42.82-20.7 42.38-20.17L42.38-20.17Q42.09-19.68 41.7-19.19L41.7-19.19Q41.31-18.65 41.04-17.99 40.77-17.33 40.38-16.8L40.38-16.8Q39.99-16.21 39.96-15.94 39.94-15.67 39.69-15.04L39.69-15.04Q40.04-14.5 40.48-14.06 40.92-13.62 41.4-13.23L41.4-13.23Q41.79-12.7 42.31-12.28 42.82-11.87 43.36-11.38L43.36-11.38Q43.55-11.18 43.7-11.01 43.85-10.84 44.04-10.69L44.04-10.69Q44.58-10.11 45.33-9.57 46.09-9.03 46.77-8.54L46.77-8.54Q47.31-8.06 48.12-7.35 48.92-6.64 49.8-5.83 50.68-5.03 51.36-4.32 52.05-3.61 52.05-3.42L52.05-3.42Q51.8-2.69 51.49-2.51 51.17-2.34 51.02-2L51.02-2Q50.73-1.9 50.73-1.81 50.73-1.71 50.58-1.46L50.58-1.46Q50.24-1.22 50-0.9 49.75-0.59 49.51-0.29L49.51-0.29Q49.31-0.2 49.14-0.12 48.97-0.05 48.87 0.15L48.87 0.15Z" opacity="1" transform="matrix(1,0,0,1,0,0)" fill="white" class="wordmark-text-0" id="SvgjsPath1061"></path></svg></g></svg></g></svg></g></svg></g></svg></g><defs><mask></mask></defs></svg><rect width="333.1418457648546" height="247.2" fill="black" stroke="none" visibility="hidden"></rect></g></mask><linearGradient x1="0" x2="1" y1="0.548" y2="0.55" id="a5121262-9b1a-4aeb-86d3-7ccabe2a85b0"><stop stop-color="#ff6cab" offset="0"></stop><stop stop-color="#7366ff" offset="1"></stop></linearGradient><rect width="333.1418457648546" height="247.2" fill="url(#a5121262-9b1a-4aeb-86d3-7ccabe2a85b0)" mask="url(#6708cec1-1988-4cba-9331-a36a38ba7bcb)" data-fill-palette-color="primary"></rect></svg><rect width="333.1418457648546" height="247.2" fill="none" stroke="none" visibility="hidden"></rect></g></svg></g></svg>